<svg class="arch-svg" xmlns="http://www.w3.org/2000/svg" width="1180" height="450" viewBox="0 0 1180 450" role="img">
<defs>
  <marker id="arrow" markerWidth="10" markerHeight="10" refX="9" refY="3" orient="auto" markerUnits="strokeWidth">
    <path d="M0,0 L0,6 L9,3 z" fill="#475569" />
  </marker>
</defs>
<style>
  .arch-svg { background: #f8fafc; border: 1px solid #dbe3ef; border-radius: 10px; }
  .node rect { stroke-width: 1.4; }
  .node text { font: 12px ui-monospace, SFMono-Regular, Consolas, monospace; fill: #0f172a; }
  .input rect { fill: #dcfce7; stroke: #16a34a; }
  .output rect { fill: #fee2e2; stroke: #dc2626; }
  .op rect { fill: #e0f2fe; stroke: #0284c7; }
  .shared rect { fill: #ede9fe; stroke: #7c3aed; }
  .head rect { fill: #fef3c7; stroke: #d97706; }
  .edge { fill: none; stroke: #475569; stroke-width: 1.5; marker-end: url(#arrow); opacity: 0.72; }
</style>
<g class="node input">
<rect x="40.0" y="179.0" width="235.0" height="92.0" rx="8" ry="8"/>
<text x="52.0" y="203.0"><tspan x="52.0" dy="0">INPUT</tspan><tspan x="52.0" dy="15">data</tspan><tspan x="52.0" dy="15">FLOAT[1x3x270x480]</tspan></text>
</g>
<g class="node shared">
<rect x="330.0" y="179.0" width="235.0" height="92.0" rx="8" ry="8"/>
<text x="342.0" y="203.0"><tspan x="342.0" dy="0">SHARED BACKBONE</tspan><tspan x="342.0" dy="15">78 nodes | Conv:26, BatchNormalization:26, Relu:18, Add:8</tspan><tspan x="342.0" dy="15">common ancestor nodes</tspan></text>
</g>
<path class="edge" d="M 275.0 225.0 C 302.5 225.0, 302.5 225.0, 330.0 225.0" />
<g class="node head">
<rect x="625.0" y="106.5" width="235.0" height="92.0" rx="8" ry="8"/>
<text x="637.0" y="130.5"><tspan x="637.0" dy="0">BBOX HEAD</tspan><tspan x="637.0" dy="15">4 nodes | Conv:2, Identity:1, Concat:1</tspan><tspan x="637.0" dy="15">conv2d_bbox</tspan></text>
</g>
<g class="node output">
<rect x="910.0" y="106.5" width="235.0" height="92.0" rx="8" ry="8"/>
<text x="922.0" y="130.5"><tspan x="922.0" dy="0">OUTPUT</tspan><tspan x="922.0" dy="15">conv2d_bbox</tspan><tspan x="922.0" dy="15">FLOAT[1x16x17x30]</tspan></text>
</g>
<path class="edge" d="M 565.0 225.0 C 595.0 225.0, 595.0 152.5, 625.0 152.5" />
<path class="edge" d="M 860.0 152.5 C 885.0 152.5, 885.0 152.5, 910.0 152.5" />
<g class="node head">
<rect x="625.0" y="251.5" width="235.0" height="92.0" rx="8" ry="8"/>
<text x="637.0" y="275.5"><tspan x="637.0" dy="0">CONFIDENCE HEAD</tspan><tspan x="637.0" dy="15">6 nodes | Conv:2, Sigmoid:2, Concat:1, Identity:1</tspan><tspan x="637.0" dy="15">conv2d_cov/Sigmoid</tspan></text>
</g>
<g class="node output">
<rect x="910.0" y="251.5" width="235.0" height="92.0" rx="8" ry="8"/>
<text x="922.0" y="275.5"><tspan x="922.0" dy="0">OUTPUT</tspan><tspan x="922.0" dy="15">conv2d_cov/Sigmoid</tspan><tspan x="922.0" dy="15">FLOAT[1x4x17x30]</tspan></text>
</g>
<path class="edge" d="M 565.0 225.0 C 595.0 225.0, 595.0 297.5, 625.0 297.5" />
<path class="edge" d="M 860.0 297.5 C 885.0 297.5, 885.0 297.5, 910.0 297.5" />
</svg>